<mxfile host="app.diagrams.net" modified="2024-05-19T18:56:44.570Z" agent="Mozilla/5.0 (Macintosh; Intel Mac OS X 10_15_7) AppleWebKit/537.36 (KHTML, like Gecko) Chrome/123.0.0.0 Safari/537.36" etag="CZgfRprPPOw208fTh65T" version="24.4.4" type="github">
  <diagram name="Page-1" id="D3DyWlrfUJnLOUU4IPov">
    <mxGraphModel dx="2110" dy="1142" grid="1" gridSize="10" guides="1" tooltips="1" connect="1" arrows="1" fold="1" page="0" pageScale="1" pageWidth="827" pageHeight="1169" math="0" shadow="0">
      <root>
        <mxCell id="0" />
        <mxCell id="1" parent="0" />
        <mxCell id="yYq1-mPOltJAiArIZwE5-4" value="" style="edgeStyle=orthogonalEdgeStyle;rounded=0;sketch=1;hachureGap=4;jiggle=2;curveFitting=1;orthogonalLoop=1;jettySize=auto;html=1;fontFamily=Architects Daughter;fontSource=https%3A%2F%2Ffonts.googleapis.com%2Fcss%3Ffamily%3DArchitects%2BDaughter;" edge="1" parent="1" source="yYq1-mPOltJAiArIZwE5-1" target="yYq1-mPOltJAiArIZwE5-3">
          <mxGeometry relative="1" as="geometry" />
        </mxCell>
        <mxCell id="yYq1-mPOltJAiArIZwE5-1" value="Je cherche des gens pour s&#39;entrainer" style="rounded=0;whiteSpace=wrap;html=1;sketch=1;hachureGap=4;jiggle=2;curveFitting=1;fontFamily=Architects Daughter;fontSource=https%3A%2F%2Ffonts.googleapis.com%2Fcss%3Ffamily%3DArchitects%2BDaughter;" vertex="1" parent="1">
          <mxGeometry x="-60" y="110" width="180" height="110" as="geometry" />
        </mxCell>
        <mxCell id="yYq1-mPOltJAiArIZwE5-6" value="" style="edgeStyle=orthogonalEdgeStyle;rounded=0;sketch=1;hachureGap=4;jiggle=2;curveFitting=1;orthogonalLoop=1;jettySize=auto;html=1;fontFamily=Architects Daughter;fontSource=https%3A%2F%2Ffonts.googleapis.com%2Fcss%3Ffamily%3DArchitects%2BDaughter;" edge="1" parent="1" source="yYq1-mPOltJAiArIZwE5-3" target="yYq1-mPOltJAiArIZwE5-5">
          <mxGeometry relative="1" as="geometry" />
        </mxCell>
        <mxCell id="yYq1-mPOltJAiArIZwE5-16" value="" style="edgeStyle=orthogonalEdgeStyle;rounded=0;sketch=1;hachureGap=4;jiggle=2;curveFitting=1;orthogonalLoop=1;jettySize=auto;html=1;fontFamily=Architects Daughter;fontSource=https%3A%2F%2Ffonts.googleapis.com%2Fcss%3Ffamily%3DArchitects%2BDaughter;" edge="1" parent="1" source="yYq1-mPOltJAiArIZwE5-3" target="yYq1-mPOltJAiArIZwE5-15">
          <mxGeometry relative="1" as="geometry" />
        </mxCell>
        <mxCell id="yYq1-mPOltJAiArIZwE5-3" value="J&#39;ai un endroit ?" style="rounded=0;whiteSpace=wrap;html=1;sketch=1;hachureGap=4;jiggle=2;curveFitting=1;fontFamily=Architects Daughter;fontSource=https%3A%2F%2Ffonts.googleapis.com%2Fcss%3Ffamily%3DArchitects%2BDaughter;" vertex="1" parent="1">
          <mxGeometry x="200" y="110" width="180" height="110" as="geometry" />
        </mxCell>
        <mxCell id="yYq1-mPOltJAiArIZwE5-8" value="" style="edgeStyle=orthogonalEdgeStyle;rounded=0;sketch=1;hachureGap=4;jiggle=2;curveFitting=1;orthogonalLoop=1;jettySize=auto;html=1;fontFamily=Architects Daughter;fontSource=https%3A%2F%2Ffonts.googleapis.com%2Fcss%3Ffamily%3DArchitects%2BDaughter;" edge="1" parent="1" source="yYq1-mPOltJAiArIZwE5-5" target="yYq1-mPOltJAiArIZwE5-7">
          <mxGeometry relative="1" as="geometry" />
        </mxCell>
        <mxCell id="yYq1-mPOltJAiArIZwE5-10" value="" style="edgeStyle=orthogonalEdgeStyle;rounded=0;sketch=1;hachureGap=4;jiggle=2;curveFitting=1;orthogonalLoop=1;jettySize=auto;html=1;fontFamily=Architects Daughter;fontSource=https%3A%2F%2Ffonts.googleapis.com%2Fcss%3Ffamily%3DArchitects%2BDaughter;exitX=0.5;exitY=1;exitDx=0;exitDy=0;entryX=0.454;entryY=-0.02;entryDx=0;entryDy=0;entryPerimeter=0;" edge="1" parent="1" source="yYq1-mPOltJAiArIZwE5-5" target="yYq1-mPOltJAiArIZwE5-26">
          <mxGeometry relative="1" as="geometry" />
        </mxCell>
        <mxCell id="yYq1-mPOltJAiArIZwE5-5" value="" style="rhombus;whiteSpace=wrap;html=1;fontFamily=Architects Daughter;rounded=0;sketch=1;hachureGap=4;jiggle=2;curveFitting=1;fontSource=https%3A%2F%2Ffonts.googleapis.com%2Fcss%3Ffamily%3DArchitects%2BDaughter;" vertex="1" parent="1">
          <mxGeometry x="510" y="125" width="80" height="80" as="geometry" />
        </mxCell>
        <mxCell id="yYq1-mPOltJAiArIZwE5-7" value="On t&#39;affiche uniquement ceux qui ont des e,ndroit" style="whiteSpace=wrap;html=1;fontFamily=Architects Daughter;rounded=0;sketch=1;hachureGap=4;jiggle=2;curveFitting=1;fontSource=https%3A%2F%2Ffonts.googleapis.com%2Fcss%3Ffamily%3DArchitects%2BDaughter;" vertex="1" parent="1">
          <mxGeometry x="970" y="135" width="120" height="60" as="geometry" />
        </mxCell>
        <mxCell id="yYq1-mPOltJAiArIZwE5-9" value="on t&#39;affiche tout le monde" style="whiteSpace=wrap;html=1;fontFamily=Architects Daughter;rounded=0;sketch=1;hachureGap=4;jiggle=2;curveFitting=1;fontSource=https%3A%2F%2Ffonts.googleapis.com%2Fcss%3Ffamily%3DArchitects%2BDaughter;" vertex="1" parent="1">
          <mxGeometry x="870" y="450" width="120" height="60" as="geometry" />
        </mxCell>
        <mxCell id="yYq1-mPOltJAiArIZwE5-12" value="OUI" style="ellipse;whiteSpace=wrap;html=1;sketch=1;hachureGap=4;jiggle=2;curveFitting=1;fontFamily=Architects Daughter;fontSource=https%3A%2F%2Ffonts.googleapis.com%2Fcss%3Ffamily%3DArchitects%2BDaughter;" vertex="1" parent="1">
          <mxGeometry x="550" y="230" width="60" height="45" as="geometry" />
        </mxCell>
        <mxCell id="yYq1-mPOltJAiArIZwE5-13" value="NON" style="ellipse;whiteSpace=wrap;html=1;sketch=1;hachureGap=4;jiggle=2;curveFitting=1;fontFamily=Architects Daughter;fontSource=https%3A%2F%2Ffonts.googleapis.com%2Fcss%3Ffamily%3DArchitects%2BDaughter;" vertex="1" parent="1">
          <mxGeometry x="690" y="125" width="60" height="45" as="geometry" />
        </mxCell>
        <mxCell id="yYq1-mPOltJAiArIZwE5-14" value="Gérer mes lieux d&#39;entrainement" style="rounded=0;whiteSpace=wrap;html=1;sketch=1;hachureGap=4;jiggle=2;curveFitting=1;fontFamily=Architects Daughter;fontSource=https%3A%2F%2Ffonts.googleapis.com%2Fcss%3Ffamily%3DArchitects%2BDaughter;" vertex="1" parent="1">
          <mxGeometry x="-60" y="437.5" width="170" height="80" as="geometry" />
        </mxCell>
        <mxCell id="yYq1-mPOltJAiArIZwE5-33" value="" style="edgeStyle=orthogonalEdgeStyle;rounded=0;sketch=1;hachureGap=4;jiggle=2;curveFitting=1;orthogonalLoop=1;jettySize=auto;html=1;fontFamily=Architects Daughter;fontSource=https%3A%2F%2Ffonts.googleapis.com%2Fcss%3Ffamily%3DArchitects%2BDaughter;" edge="1" parent="1" source="yYq1-mPOltJAiArIZwE5-15" target="yYq1-mPOltJAiArIZwE5-32">
          <mxGeometry relative="1" as="geometry" />
        </mxCell>
        <mxCell id="yYq1-mPOltJAiArIZwE5-15" value="ajouter un endroit" style="rounded=0;whiteSpace=wrap;html=1;sketch=1;hachureGap=4;jiggle=2;curveFitting=1;fontFamily=Architects Daughter;fontSource=https%3A%2F%2Ffonts.googleapis.com%2Fcss%3Ffamily%3DArchitects%2BDaughter;" vertex="1" parent="1">
          <mxGeometry x="205" y="442.5" width="170" height="70" as="geometry" />
        </mxCell>
        <mxCell id="yYq1-mPOltJAiArIZwE5-17" style="edgeStyle=orthogonalEdgeStyle;rounded=0;sketch=1;hachureGap=4;jiggle=2;curveFitting=1;orthogonalLoop=1;jettySize=auto;html=1;entryX=-0.033;entryY=0.5;entryDx=0;entryDy=0;entryPerimeter=0;fontFamily=Architects Daughter;fontSource=https%3A%2F%2Ffonts.googleapis.com%2Fcss%3Ffamily%3DArchitects%2BDaughter;" edge="1" parent="1" source="yYq1-mPOltJAiArIZwE5-14" target="yYq1-mPOltJAiArIZwE5-15">
          <mxGeometry relative="1" as="geometry" />
        </mxCell>
        <mxCell id="yYq1-mPOltJAiArIZwE5-25" style="edgeStyle=orthogonalEdgeStyle;rounded=0;sketch=1;hachureGap=4;jiggle=2;curveFitting=1;orthogonalLoop=1;jettySize=auto;html=1;entryX=0;entryY=0.5;entryDx=0;entryDy=0;fontFamily=Architects Daughter;fontSource=https%3A%2F%2Ffonts.googleapis.com%2Fcss%3Ffamily%3DArchitects%2BDaughter;" edge="1" parent="1" source="yYq1-mPOltJAiArIZwE5-24" target="yYq1-mPOltJAiArIZwE5-9">
          <mxGeometry relative="1" as="geometry" />
        </mxCell>
        <mxCell id="yYq1-mPOltJAiArIZwE5-30" style="edgeStyle=orthogonalEdgeStyle;rounded=0;sketch=1;hachureGap=4;jiggle=2;curveFitting=1;orthogonalLoop=1;jettySize=auto;html=1;entryX=1;entryY=0.5;entryDx=0;entryDy=0;fontFamily=Architects Daughter;fontSource=https%3A%2F%2Ffonts.googleapis.com%2Fcss%3Ffamily%3DArchitects%2BDaughter;" edge="1" parent="1" source="yYq1-mPOltJAiArIZwE5-24" target="yYq1-mPOltJAiArIZwE5-15">
          <mxGeometry relative="1" as="geometry" />
        </mxCell>
        <mxCell id="yYq1-mPOltJAiArIZwE5-24" value="" style="rhombus;whiteSpace=wrap;html=1;fontFamily=Architects Daughter;rounded=0;sketch=1;hachureGap=4;jiggle=2;curveFitting=1;fontSource=https%3A%2F%2Ffonts.googleapis.com%2Fcss%3Ffamily%3DArchitects%2BDaughter;" vertex="1" parent="1">
          <mxGeometry x="520" y="440" width="80" height="80" as="geometry" />
        </mxCell>
        <mxCell id="yYq1-mPOltJAiArIZwE5-28" style="edgeStyle=orthogonalEdgeStyle;rounded=0;sketch=1;hachureGap=4;jiggle=2;curveFitting=1;orthogonalLoop=1;jettySize=auto;html=1;entryX=0.5;entryY=0;entryDx=0;entryDy=0;fontFamily=Architects Daughter;fontSource=https%3A%2F%2Ffonts.googleapis.com%2Fcss%3Ffamily%3DArchitects%2BDaughter;" edge="1" parent="1" source="yYq1-mPOltJAiArIZwE5-26" target="yYq1-mPOltJAiArIZwE5-24">
          <mxGeometry relative="1" as="geometry" />
        </mxCell>
        <mxCell id="yYq1-mPOltJAiArIZwE5-26" value="J&#39;en ai enregistré ?" style="whiteSpace=wrap;html=1;fontFamily=Architects Daughter;rounded=0;sketch=1;hachureGap=4;jiggle=2;curveFitting=1;fontSource=https%3A%2F%2Ffonts.googleapis.com%2Fcss%3Ffamily%3DArchitects%2BDaughter;" vertex="1" parent="1">
          <mxGeometry x="500" y="300" width="120" height="60" as="geometry" />
        </mxCell>
        <mxCell id="yYq1-mPOltJAiArIZwE5-29" value="NON" style="ellipse;whiteSpace=wrap;html=1;sketch=1;hachureGap=4;jiggle=2;curveFitting=1;fontFamily=Architects Daughter;fontSource=https%3A%2F%2Ffonts.googleapis.com%2Fcss%3Ffamily%3DArchitects%2BDaughter;" vertex="1" parent="1">
          <mxGeometry x="420" y="440" width="60" height="45" as="geometry" />
        </mxCell>
        <mxCell id="yYq1-mPOltJAiArIZwE5-31" value="OUI" style="ellipse;whiteSpace=wrap;html=1;sketch=1;hachureGap=4;jiggle=2;curveFitting=1;fontFamily=Architects Daughter;fontSource=https%3A%2F%2Ffonts.googleapis.com%2Fcss%3Ffamily%3DArchitects%2BDaughter;" vertex="1" parent="1">
          <mxGeometry x="620" y="437.5" width="60" height="45" as="geometry" />
        </mxCell>
        <mxCell id="yYq1-mPOltJAiArIZwE5-35" value="" style="edgeStyle=orthogonalEdgeStyle;rounded=0;sketch=1;hachureGap=4;jiggle=2;curveFitting=1;orthogonalLoop=1;jettySize=auto;html=1;fontFamily=Architects Daughter;fontSource=https%3A%2F%2Ffonts.googleapis.com%2Fcss%3Ffamily%3DArchitects%2BDaughter;" edge="1" parent="1" source="yYq1-mPOltJAiArIZwE5-32" target="yYq1-mPOltJAiArIZwE5-34">
          <mxGeometry relative="1" as="geometry" />
        </mxCell>
        <mxCell id="yYq1-mPOltJAiArIZwE5-32" value="dans le cadre d&#39;une recherche ?" style="rounded=0;whiteSpace=wrap;html=1;sketch=1;hachureGap=4;jiggle=2;curveFitting=1;fontFamily=Architects Daughter;fontSource=https%3A%2F%2Ffonts.googleapis.com%2Fcss%3Ffamily%3DArchitects%2BDaughter;" vertex="1" parent="1">
          <mxGeometry x="205" y="592.5" width="170" height="70" as="geometry" />
        </mxCell>
        <mxCell id="yYq1-mPOltJAiArIZwE5-36" style="edgeStyle=orthogonalEdgeStyle;rounded=0;sketch=1;hachureGap=4;jiggle=2;curveFitting=1;orthogonalLoop=1;jettySize=auto;html=1;entryX=0.5;entryY=1;entryDx=0;entryDy=0;fontFamily=Architects Daughter;fontSource=https%3A%2F%2Ffonts.googleapis.com%2Fcss%3Ffamily%3DArchitects%2BDaughter;" edge="1" parent="1" source="yYq1-mPOltJAiArIZwE5-34" target="yYq1-mPOltJAiArIZwE5-7">
          <mxGeometry relative="1" as="geometry" />
        </mxCell>
        <mxCell id="yYq1-mPOltJAiArIZwE5-38" style="edgeStyle=orthogonalEdgeStyle;rounded=0;sketch=1;hachureGap=4;jiggle=2;curveFitting=1;orthogonalLoop=1;jettySize=auto;html=1;entryX=0.5;entryY=1;entryDx=0;entryDy=0;fontFamily=Architects Daughter;fontSource=https%3A%2F%2Ffonts.googleapis.com%2Fcss%3Ffamily%3DArchitects%2BDaughter;" edge="1" parent="1" source="yYq1-mPOltJAiArIZwE5-34" target="yYq1-mPOltJAiArIZwE5-14">
          <mxGeometry relative="1" as="geometry" />
        </mxCell>
        <mxCell id="yYq1-mPOltJAiArIZwE5-34" value="" style="rhombus;whiteSpace=wrap;html=1;fontFamily=Architects Daughter;rounded=0;sketch=1;hachureGap=4;jiggle=2;curveFitting=1;fontSource=https%3A%2F%2Ffonts.googleapis.com%2Fcss%3Ffamily%3DArchitects%2BDaughter;" vertex="1" parent="1">
          <mxGeometry x="250" y="737.5" width="80" height="80" as="geometry" />
        </mxCell>
        <mxCell id="yYq1-mPOltJAiArIZwE5-37" value="OUI" style="ellipse;whiteSpace=wrap;html=1;sketch=1;hachureGap=4;jiggle=2;curveFitting=1;fontFamily=Architects Daughter;fontSource=https%3A%2F%2Ffonts.googleapis.com%2Fcss%3Ffamily%3DArchitects%2BDaughter;" vertex="1" parent="1">
          <mxGeometry x="590" y="730" width="60" height="45" as="geometry" />
        </mxCell>
        <mxCell id="yYq1-mPOltJAiArIZwE5-39" value="NON" style="ellipse;whiteSpace=wrap;html=1;sketch=1;hachureGap=4;jiggle=2;curveFitting=1;fontFamily=Architects Daughter;fontSource=https%3A%2F%2Ffonts.googleapis.com%2Fcss%3Ffamily%3DArchitects%2BDaughter;" vertex="1" parent="1">
          <mxGeometry x="110" y="737.5" width="60" height="45" as="geometry" />
        </mxCell>
      </root>
    </mxGraphModel>
  </diagram>
</mxfile>
